<mxfile host="app.diagrams.net" agent="Mozilla/5.0 (X11; Ubuntu; Linux x86_64; rv:136.0) Gecko/20100101 Firefox/136.0" version="26.1.1">
  <diagram name="Page-1" id="tsvSueMP9a2My4nPX8ev">
    <mxGraphModel dx="779" dy="438" grid="1" gridSize="10" guides="1" tooltips="1" connect="1" arrows="1" fold="1" page="1" pageScale="1" pageWidth="850" pageHeight="1100" math="0" shadow="0">
      <root>
        <mxCell id="0" />
        <mxCell id="1" parent="0" />
        <mxCell id="kwgtXdvCf1p5rxARmV_t-1" value="idle" style="rounded=0;whiteSpace=wrap;html=1;" vertex="1" parent="1">
          <mxGeometry x="240" y="260" width="50" height="20" as="geometry" />
        </mxCell>
        <mxCell id="kwgtXdvCf1p5rxARmV_t-2" value="request" style="rounded=0;whiteSpace=wrap;html=1;fillColor=#f8cecc;strokeColor=#b85450;" vertex="1" parent="1">
          <mxGeometry x="290" y="260" width="50" height="20" as="geometry" />
        </mxCell>
        <mxCell id="kwgtXdvCf1p5rxARmV_t-3" value="Module 1 state" style="text;html=1;align=center;verticalAlign=middle;whiteSpace=wrap;rounded=0;" vertex="1" parent="1">
          <mxGeometry x="130" y="250" width="90" height="30" as="geometry" />
        </mxCell>
        <mxCell id="kwgtXdvCf1p5rxARmV_t-4" value="Module 2 state" style="text;html=1;align=center;verticalAlign=middle;whiteSpace=wrap;rounded=0;" vertex="1" parent="1">
          <mxGeometry x="130" y="290" width="90" height="30" as="geometry" />
        </mxCell>
        <mxCell id="kwgtXdvCf1p5rxARmV_t-5" value="Merger state" style="text;html=1;align=center;verticalAlign=middle;whiteSpace=wrap;rounded=0;" vertex="1" parent="1">
          <mxGeometry x="130" y="330" width="90" height="30" as="geometry" />
        </mxCell>
        <mxCell id="kwgtXdvCf1p5rxARmV_t-6" value="idle" style="rounded=0;whiteSpace=wrap;html=1;" vertex="1" parent="1">
          <mxGeometry x="240" y="300" width="50" height="20" as="geometry" />
        </mxCell>
        <mxCell id="kwgtXdvCf1p5rxARmV_t-7" value="idle" style="rounded=0;whiteSpace=wrap;html=1;" vertex="1" parent="1">
          <mxGeometry x="240" y="340" width="50" height="20" as="geometry" />
        </mxCell>
        <mxCell id="kwgtXdvCf1p5rxARmV_t-8" value="request" style="rounded=0;whiteSpace=wrap;html=1;fillColor=#f8cecc;strokeColor=#b85450;" vertex="1" parent="1">
          <mxGeometry x="290" y="300" width="50" height="20" as="geometry" />
        </mxCell>
        <mxCell id="kwgtXdvCf1p5rxARmV_t-9" value="busy" style="rounded=0;whiteSpace=wrap;html=1;" vertex="1" parent="1">
          <mxGeometry x="290" y="340" width="50" height="20" as="geometry" />
        </mxCell>
        <mxCell id="kwgtXdvCf1p5rxARmV_t-10" value="request" style="rounded=0;whiteSpace=wrap;html=1;" vertex="1" parent="1">
          <mxGeometry x="340" y="340" width="50" height="20" as="geometry" />
        </mxCell>
        <mxCell id="kwgtXdvCf1p5rxARmV_t-11" value="request" style="rounded=0;whiteSpace=wrap;html=1;fillColor=#f8cecc;strokeColor=#b85450;" vertex="1" parent="1">
          <mxGeometry x="340" y="300" width="50" height="20" as="geometry" />
        </mxCell>
        <mxCell id="kwgtXdvCf1p5rxARmV_t-12" value="request" style="rounded=0;whiteSpace=wrap;html=1;fillColor=#f8cecc;strokeColor=#b85450;" vertex="1" parent="1">
          <mxGeometry x="340" y="260" width="50" height="20" as="geometry" />
        </mxCell>
        <mxCell id="kwgtXdvCf1p5rxARmV_t-13" value="accept" style="rounded=0;whiteSpace=wrap;html=1;" vertex="1" parent="1">
          <mxGeometry x="390" y="340" width="50" height="20" as="geometry" />
        </mxCell>
        <mxCell id="kwgtXdvCf1p5rxARmV_t-14" value="request" style="rounded=0;whiteSpace=wrap;html=1;fillColor=#f8cecc;strokeColor=#b85450;" vertex="1" parent="1">
          <mxGeometry x="390" y="300" width="50" height="20" as="geometry" />
        </mxCell>
        <mxCell id="kwgtXdvCf1p5rxARmV_t-15" value="request" style="rounded=0;whiteSpace=wrap;html=1;fillColor=#f8cecc;strokeColor=#b85450;" vertex="1" parent="1">
          <mxGeometry x="390" y="260" width="50" height="20" as="geometry" />
        </mxCell>
        <mxCell id="kwgtXdvCf1p5rxARmV_t-16" value="req_a" style="rounded=0;whiteSpace=wrap;html=1;" vertex="1" parent="1">
          <mxGeometry x="440" y="340" width="50" height="20" as="geometry" />
        </mxCell>
        <mxCell id="kwgtXdvCf1p5rxARmV_t-17" value="request" style="rounded=0;whiteSpace=wrap;html=1;fillColor=#f8cecc;strokeColor=#b85450;" vertex="1" parent="1">
          <mxGeometry x="440" y="300" width="50" height="20" as="geometry" />
        </mxCell>
        <mxCell id="kwgtXdvCf1p5rxARmV_t-18" value="request" style="rounded=0;whiteSpace=wrap;html=1;fillColor=#f8cecc;strokeColor=#b85450;" vertex="1" parent="1">
          <mxGeometry x="440" y="260" width="50" height="20" as="geometry" />
        </mxCell>
        <mxCell id="kwgtXdvCf1p5rxARmV_t-21" value="ack_a" style="rounded=0;whiteSpace=wrap;html=1;" vertex="1" parent="1">
          <mxGeometry x="490" y="340" width="50" height="20" as="geometry" />
        </mxCell>
        <mxCell id="kwgtXdvCf1p5rxARmV_t-22" value="request" style="rounded=0;whiteSpace=wrap;html=1;fillColor=#f8cecc;strokeColor=#b85450;" vertex="1" parent="1">
          <mxGeometry x="490" y="300" width="50" height="20" as="geometry" />
        </mxCell>
        <mxCell id="kwgtXdvCf1p5rxARmV_t-23" value="accept" style="rounded=0;whiteSpace=wrap;html=1;" vertex="1" parent="1">
          <mxGeometry x="490" y="260" width="50" height="20" as="geometry" />
        </mxCell>
        <mxCell id="kwgtXdvCf1p5rxARmV_t-24" value="trans_a" style="rounded=0;whiteSpace=wrap;html=1;" vertex="1" parent="1">
          <mxGeometry x="540" y="340" width="50" height="20" as="geometry" />
        </mxCell>
        <mxCell id="kwgtXdvCf1p5rxARmV_t-25" value="request" style="rounded=0;whiteSpace=wrap;html=1;fillColor=#f8cecc;strokeColor=#b85450;" vertex="1" parent="1">
          <mxGeometry x="540" y="300" width="50" height="20" as="geometry" />
        </mxCell>
        <mxCell id="kwgtXdvCf1p5rxARmV_t-26" value="transmit" style="rounded=0;whiteSpace=wrap;html=1;" vertex="1" parent="1">
          <mxGeometry x="540" y="260" width="50" height="20" as="geometry" />
        </mxCell>
        <mxCell id="kwgtXdvCf1p5rxARmV_t-27" value="req_b" style="rounded=0;whiteSpace=wrap;html=1;" vertex="1" parent="1">
          <mxGeometry x="590" y="340" width="50" height="20" as="geometry" />
        </mxCell>
        <mxCell id="kwgtXdvCf1p5rxARmV_t-28" value="request" style="rounded=0;whiteSpace=wrap;html=1;fillColor=#f8cecc;strokeColor=#b85450;" vertex="1" parent="1">
          <mxGeometry x="590" y="300" width="50" height="20" as="geometry" />
        </mxCell>
        <mxCell id="kwgtXdvCf1p5rxARmV_t-29" value="idle" style="rounded=0;whiteSpace=wrap;html=1;" vertex="1" parent="1">
          <mxGeometry x="590" y="260" width="50" height="20" as="geometry" />
        </mxCell>
        <mxCell id="kwgtXdvCf1p5rxARmV_t-30" value="ack_b" style="rounded=0;whiteSpace=wrap;html=1;" vertex="1" parent="1">
          <mxGeometry x="640" y="340" width="50" height="20" as="geometry" />
        </mxCell>
        <mxCell id="kwgtXdvCf1p5rxARmV_t-31" value="accept" style="rounded=0;whiteSpace=wrap;html=1;" vertex="1" parent="1">
          <mxGeometry x="640" y="300" width="50" height="20" as="geometry" />
        </mxCell>
        <mxCell id="kwgtXdvCf1p5rxARmV_t-32" value="idle" style="rounded=0;whiteSpace=wrap;html=1;" vertex="1" parent="1">
          <mxGeometry x="640" y="260" width="50" height="20" as="geometry" />
        </mxCell>
        <mxCell id="kwgtXdvCf1p5rxARmV_t-33" value="trans_b" style="rounded=0;whiteSpace=wrap;html=1;" vertex="1" parent="1">
          <mxGeometry x="690" y="340" width="50" height="20" as="geometry" />
        </mxCell>
        <mxCell id="kwgtXdvCf1p5rxARmV_t-34" value="transmit" style="rounded=0;whiteSpace=wrap;html=1;" vertex="1" parent="1">
          <mxGeometry x="690" y="300" width="50" height="20" as="geometry" />
        </mxCell>
        <mxCell id="kwgtXdvCf1p5rxARmV_t-35" value="idle" style="rounded=0;whiteSpace=wrap;html=1;" vertex="1" parent="1">
          <mxGeometry x="690" y="260" width="50" height="20" as="geometry" />
        </mxCell>
        <mxCell id="kwgtXdvCf1p5rxARmV_t-36" value="idle" style="rounded=0;whiteSpace=wrap;html=1;" vertex="1" parent="1">
          <mxGeometry x="740" y="260" width="50" height="20" as="geometry" />
        </mxCell>
        <mxCell id="kwgtXdvCf1p5rxARmV_t-37" value="idle" style="rounded=0;whiteSpace=wrap;html=1;" vertex="1" parent="1">
          <mxGeometry x="740" y="300" width="50" height="20" as="geometry" />
        </mxCell>
        <mxCell id="kwgtXdvCf1p5rxARmV_t-38" value="idle" style="rounded=0;whiteSpace=wrap;html=1;" vertex="1" parent="1">
          <mxGeometry x="740" y="340" width="50" height="20" as="geometry" />
        </mxCell>
      </root>
    </mxGraphModel>
  </diagram>
</mxfile>
